<mxfile host="app.diagrams.net" modified="2024-05-22T19:59:42.723Z" agent="Mozilla/5.0 (Windows NT 10.0; Win64; x64; rv:123.0) Gecko/20100101 Firefox/123.0" etag="syOLRCQYhTlsdxPa8oLY" version="24.4.6" type="device">
  <diagram name="Page-1" id="brrsVKgchMgQaj_gkN8t">
    <mxGraphModel dx="880" dy="470" grid="1" gridSize="10" guides="1" tooltips="1" connect="1" arrows="1" fold="1" page="1" pageScale="1" pageWidth="850" pageHeight="1100" math="0" shadow="0">
      <root>
        <mxCell id="0" />
        <mxCell id="1" parent="0" />
        <mxCell id="ysQrRvsWg_elVjMgxu8O-1" value="Admin" style="shape=umlActor;verticalLabelPosition=bottom;verticalAlign=top;html=1;outlineConnect=0;" vertex="1" parent="1">
          <mxGeometry x="30" y="330" width="30" height="60" as="geometry" />
        </mxCell>
        <mxCell id="ysQrRvsWg_elVjMgxu8O-2" value="Operador" style="shape=umlActor;verticalLabelPosition=bottom;verticalAlign=top;html=1;outlineConnect=0;" vertex="1" parent="1">
          <mxGeometry x="30" y="170" width="30" height="60" as="geometry" />
        </mxCell>
        <mxCell id="ysQrRvsWg_elVjMgxu8O-4" value="" style="rounded=0;whiteSpace=wrap;html=1;fillColor=none;" vertex="1" parent="1">
          <mxGeometry x="150" y="40" width="150" height="450" as="geometry" />
        </mxCell>
        <mxCell id="ysQrRvsWg_elVjMgxu8O-5" value="" style="ellipse;whiteSpace=wrap;html=1;" vertex="1" parent="1">
          <mxGeometry x="190" y="90" width="90" height="50" as="geometry" />
        </mxCell>
        <mxCell id="ysQrRvsWg_elVjMgxu8O-6" value="&lt;div&gt;Receber &lt;br&gt;&lt;/div&gt;&lt;div&gt;Veículo&lt;br&gt;&lt;/div&gt;" style="text;html=1;align=center;verticalAlign=middle;whiteSpace=wrap;rounded=0;" vertex="1" parent="1">
          <mxGeometry x="205" y="100" width="60" height="30" as="geometry" />
        </mxCell>
        <mxCell id="ysQrRvsWg_elVjMgxu8O-7" value="" style="ellipse;whiteSpace=wrap;html=1;" vertex="1" parent="1">
          <mxGeometry x="190" y="160" width="90" height="50" as="geometry" />
        </mxCell>
        <mxCell id="ysQrRvsWg_elVjMgxu8O-8" value="Iniciar Serviço" style="text;html=1;align=center;verticalAlign=middle;whiteSpace=wrap;rounded=0;" vertex="1" parent="1">
          <mxGeometry x="205" y="170" width="60" height="30" as="geometry" />
        </mxCell>
        <mxCell id="ysQrRvsWg_elVjMgxu8O-10" value="" style="ellipse;whiteSpace=wrap;html=1;" vertex="1" parent="1">
          <mxGeometry x="190" y="220" width="90" height="50" as="geometry" />
        </mxCell>
        <mxCell id="ysQrRvsWg_elVjMgxu8O-11" value="Concluir Servço" style="text;html=1;align=center;verticalAlign=middle;whiteSpace=wrap;rounded=0;" vertex="1" parent="1">
          <mxGeometry x="205" y="230" width="60" height="30" as="geometry" />
        </mxCell>
        <mxCell id="ysQrRvsWg_elVjMgxu8O-12" value="" style="ellipse;whiteSpace=wrap;html=1;" vertex="1" parent="1">
          <mxGeometry x="190" y="290" width="90" height="50" as="geometry" />
        </mxCell>
        <mxCell id="ysQrRvsWg_elVjMgxu8O-13" value="&lt;div&gt;Entregar &lt;br&gt;&lt;/div&gt;&lt;div&gt;Veículo&lt;br&gt;&lt;/div&gt;" style="text;html=1;align=center;verticalAlign=middle;whiteSpace=wrap;rounded=0;" vertex="1" parent="1">
          <mxGeometry x="205" y="300" width="60" height="30" as="geometry" />
        </mxCell>
        <mxCell id="ysQrRvsWg_elVjMgxu8O-14" value="" style="ellipse;whiteSpace=wrap;html=1;" vertex="1" parent="1">
          <mxGeometry x="190" y="380" width="90" height="50" as="geometry" />
        </mxCell>
        <mxCell id="ysQrRvsWg_elVjMgxu8O-15" value="&lt;div&gt;Entregar &lt;br&gt;&lt;/div&gt;&lt;div&gt;Veículo&lt;br&gt;&lt;/div&gt;" style="text;html=1;align=center;verticalAlign=middle;whiteSpace=wrap;rounded=0;" vertex="1" parent="1">
          <mxGeometry x="205" y="390" width="60" height="30" as="geometry" />
        </mxCell>
        <mxCell id="ysQrRvsWg_elVjMgxu8O-17" value="" style="endArrow=classic;html=1;rounded=0;exitX=0.5;exitY=0.5;exitDx=0;exitDy=0;exitPerimeter=0;entryX=0;entryY=0.5;entryDx=0;entryDy=0;" edge="1" parent="1" source="ysQrRvsWg_elVjMgxu8O-2" target="ysQrRvsWg_elVjMgxu8O-5">
          <mxGeometry width="50" height="50" relative="1" as="geometry">
            <mxPoint x="400" y="280" as="sourcePoint" />
            <mxPoint x="450" y="230" as="targetPoint" />
          </mxGeometry>
        </mxCell>
        <mxCell id="ysQrRvsWg_elVjMgxu8O-18" value="" style="endArrow=classic;html=1;rounded=0;exitX=0.5;exitY=0.5;exitDx=0;exitDy=0;exitPerimeter=0;entryX=0;entryY=0.5;entryDx=0;entryDy=0;" edge="1" parent="1" source="ysQrRvsWg_elVjMgxu8O-2" target="ysQrRvsWg_elVjMgxu8O-7">
          <mxGeometry width="50" height="50" relative="1" as="geometry">
            <mxPoint x="105" y="280" as="sourcePoint" />
            <mxPoint x="245" y="150" as="targetPoint" />
          </mxGeometry>
        </mxCell>
        <mxCell id="ysQrRvsWg_elVjMgxu8O-19" value="" style="endArrow=classic;html=1;rounded=0;exitX=0.5;exitY=0.5;exitDx=0;exitDy=0;exitPerimeter=0;" edge="1" parent="1" source="ysQrRvsWg_elVjMgxu8O-2">
          <mxGeometry width="50" height="50" relative="1" as="geometry">
            <mxPoint x="105" y="280" as="sourcePoint" />
            <mxPoint x="190" y="245" as="targetPoint" />
          </mxGeometry>
        </mxCell>
        <mxCell id="ysQrRvsWg_elVjMgxu8O-20" value="" style="endArrow=classic;html=1;rounded=0;exitX=0.5;exitY=0.5;exitDx=0;exitDy=0;exitPerimeter=0;entryX=0;entryY=0.5;entryDx=0;entryDy=0;" edge="1" parent="1" source="ysQrRvsWg_elVjMgxu8O-2" target="ysQrRvsWg_elVjMgxu8O-14">
          <mxGeometry width="50" height="50" relative="1" as="geometry">
            <mxPoint x="105" y="280" as="sourcePoint" />
            <mxPoint x="480" y="150" as="targetPoint" />
          </mxGeometry>
        </mxCell>
        <mxCell id="ysQrRvsWg_elVjMgxu8O-21" value="" style="endArrow=classic;html=1;rounded=0;exitX=0.5;exitY=0.5;exitDx=0;exitDy=0;exitPerimeter=0;entryX=0;entryY=0.5;entryDx=0;entryDy=0;" edge="1" parent="1" source="ysQrRvsWg_elVjMgxu8O-2" target="ysQrRvsWg_elVjMgxu8O-12">
          <mxGeometry width="50" height="50" relative="1" as="geometry">
            <mxPoint x="105" y="280" as="sourcePoint" />
            <mxPoint x="585" y="150" as="targetPoint" />
          </mxGeometry>
        </mxCell>
        <mxCell id="ysQrRvsWg_elVjMgxu8O-23" value="" style="ellipse;whiteSpace=wrap;html=1;" vertex="1" parent="1">
          <mxGeometry x="190" y="440" width="90" height="50" as="geometry" />
        </mxCell>
        <mxCell id="ysQrRvsWg_elVjMgxu8O-24" value="&lt;div&gt;Cancelar &lt;br&gt;&lt;/div&gt;&lt;div&gt;Serviço&lt;br&gt;&lt;/div&gt;" style="text;html=1;align=center;verticalAlign=middle;whiteSpace=wrap;rounded=0;" vertex="1" parent="1">
          <mxGeometry x="205" y="450" width="60" height="30" as="geometry" />
        </mxCell>
        <mxCell id="ysQrRvsWg_elVjMgxu8O-26" value="" style="endArrow=classic;html=1;rounded=0;exitX=0.5;exitY=0.5;exitDx=0;exitDy=0;exitPerimeter=0;entryX=0;entryY=0.5;entryDx=0;entryDy=0;" edge="1" parent="1" source="ysQrRvsWg_elVjMgxu8O-1" target="ysQrRvsWg_elVjMgxu8O-23">
          <mxGeometry width="50" height="50" relative="1" as="geometry">
            <mxPoint x="115" y="210" as="sourcePoint" />
            <mxPoint x="245" y="150" as="targetPoint" />
          </mxGeometry>
        </mxCell>
      </root>
    </mxGraphModel>
  </diagram>
</mxfile>
